<svg xmlns="http://www.w3.org/2000/svg" xmlns:xlink="http://www.w3.org/1999/xlink" width="1080" zoomAndPan="magnify" viewBox="0 0 810 1439.999935" height="1920" preserveAspectRatio="xMidYMid meet" version="1.0"><defs><clipPath id="1c2f98111e"><path d="M 154 425.445312 L 656 425.445312 L 656 1223.445312 L 154 1223.445312 Z M 154 425.445312 " clip-rule="nonzero"/></clipPath><clipPath id="e1be044cee"><path d="M 238.851562 224.8125 L 571 224.8125 L 571 401.0625 L 238.851562 401.0625 Z M 238.851562 224.8125 " clip-rule="nonzero"/></clipPath></defs><g clip-path="url(#1c2f98111e)"><path fill="#ffde59" d="M 408.277344 1223.582031 L 257.839844 1223.582031 C 231.683594 1223.582031 222.953125 1219.230469 214.226562 1210.503906 C 183.714844 1179.992188 166.261719 1171.265625 166.261719 1158.183594 C 166.261719 1145.105469 166.261719 909.628906 170.636719 887.824219 C 174.988281 866.039062 170.636719 861.664062 161.910156 844.230469 C 147.058594 814.527344 157.558594 804.992188 166.261719 783.1875 C 174.988281 761.378906 166.261719 761.378906 166.261719 743.945312 C 166.261719 726.515625 170.636719 486.664062 170.636719 486.664062 C 218.601562 443.074219 222.953125 438.699219 236.035156 438.699219 L 379.933594 438.699219 C 389.160156 429.46875 393.011719 425.445312 405.042969 425.445312 C 414.816406 425.445312 420.875 429.488281 430.085938 438.699219 L 573.980469 438.699219 C 587.0625 438.699219 591.414062 443.074219 639.378906 486.664062 C 639.378906 486.664062 643.753906 726.492188 643.753906 743.945312 C 643.753906 761.402344 635.027344 761.378906 643.753906 783.1875 C 652.460938 804.992188 662.957031 814.527344 648.105469 844.230469 C 639.378906 861.664062 635.027344 866.039062 639.378906 887.824219 C 643.753906 909.628906 643.753906 1145.105469 643.753906 1158.183594 C 643.753906 1171.265625 626.300781 1179.992188 595.789062 1210.503906 C 587.0625 1219.230469 578.335938 1223.582031 552.175781 1223.582031 C 552.175781 1223.582031 562.390625 1223.582031 408.277344 1223.582031 Z M 408.277344 1223.582031 " fill-opacity="1" fill-rule="nonzero"/></g><path fill="#977028" d="M 552.175781 1204.816406 C 570.132812 1204.816406 576.519531 1203.21875 582.492188 1197.226562 C 597.976562 1181.761719 610.113281 1171.8125 618.382812 1164.070312 C 620.351562 1162.253906 622.035156 1160.589844 623.433594 1159.015625 C 623.960938 1158.425781 624.550781 1157.574219 624.964844 1156.980469 C 624.964844 1134.976562 625.164062 912.539062 620.964844 891.519531 C 615.40625 863.742188 620.199219 858.03125 631.308594 835.832031 C 638.964844 820.5 636.820312 812.539062 632.601562 803.613281 C 630.675781 799.546875 628.355469 795.28125 626.300781 790.164062 C 619.695312 773.648438 620.480469 765.273438 622.144531 757.859375 C 622.976562 754.03125 624.964844 750.707031 624.964844 743.945312 C 624.964844 728.441406 621.511719 537.078125 620.746094 495.105469 C 601.234375 477.347656 590.035156 467.132812 582.335938 461.359375 C 578.507812 458.492188 576.847656 457.488281 573.980469 457.488281 L 430.085938 457.488281 C 425.097656 457.488281 420.328125 455.519531 416.808594 451.976562 C 414.816406 450.007812 413.199219 448.300781 411.625 446.964844 C 409.632812 445.261719 407.730469 444.230469 405.042969 444.230469 C 401.738281 444.230469 399.945312 445.195312 398.128906 446.878906 C 396.6875 448.234375 395.242188 449.960938 393.207031 451.976562 C 389.6875 455.519531 384.917969 457.488281 379.933594 457.488281 L 236.035156 457.488281 C 233.191406 457.488281 231.507812 458.492188 227.679688 461.359375 C 219.980469 467.132812 208.78125 477.347656 189.273438 495.105469 C 188.507812 537.078125 185.050781 728.441406 185.050781 743.945312 C 185.050781 750.707031 187.039062 754.03125 187.871094 757.859375 C 189.535156 765.273438 190.320312 773.648438 183.714844 790.164062 C 181.660156 795.28125 179.339844 799.546875 177.417969 803.613281 C 173.21875 812.539062 171.050781 820.5 178.707031 835.832031 C 189.820312 858.03125 194.609375 863.742188 189.054688 891.519531 C 184.855469 912.539062 185.050781 1134.976562 185.050781 1156.980469 C 185.464844 1157.574219 186.054688 1158.425781 186.582031 1159.015625 C 187.980469 1160.589844 189.664062 1162.253906 191.632812 1164.070312 C 199.902344 1171.8125 212.0625 1181.761719 227.527344 1197.226562 C 233.496094 1203.21875 239.882812 1204.816406 257.839844 1204.816406 Z M 552.175781 1208.929688 L 257.839844 1208.929688 C 238.089844 1208.929688 231.179688 1206.742188 224.59375 1200.136719 C 209.175781 1184.714844 197.082031 1174.808594 188.8125 1167.085938 C 186.734375 1165.164062 184.964844 1163.414062 183.476562 1161.75 C 182.667969 1160.808594 181.636719 1159.300781 181.265625 1158.777344 L 180.9375 1158.25 L 180.9375 1157.617188 C 180.917969 1139.679688 180.742188 912.011719 185.007812 890.710938 C 190.300781 864.246094 185.597656 858.84375 175.011719 837.667969 C 166.503906 820.632812 168.996094 811.773438 173.699219 801.84375 C 175.578125 797.839844 177.855469 793.664062 179.886719 788.632812 C 185.992188 773.34375 185.378906 765.621094 183.847656 758.753906 C 182.949219 754.6875 180.9375 751.144531 180.9375 743.945312 C 180.9375 728.308594 184.4375 534.234375 185.160156 494.144531 L 185.160156 493.246094 C 185.160156 493.246094 185.835938 492.65625 185.835938 492.65625 C 205.917969 474.394531 217.355469 463.9375 225.207031 458.054688 C 230.105469 454.382812 232.382812 453.351562 236.035156 453.351562 L 379.933594 453.351562 C 383.824219 453.351562 387.542969 451.820312 390.300781 449.066406 C 395.898438 443.464844 397.734375 440.097656 405.042969 440.097656 C 410.96875 440.097656 414.140625 443.464844 419.71875 449.066406 C 422.472656 451.820312 426.191406 453.351562 430.085938 453.351562 L 573.980469 453.351562 C 577.65625 453.351562 579.910156 454.382812 584.808594 458.054688 C 592.660156 463.9375 604.101562 474.394531 624.179688 492.65625 L 624.855469 493.246094 L 624.855469 494.144531 C 625.601562 534.234375 629.101562 728.308594 629.101562 743.945312 C 629.101562 751.144531 627.066406 754.6875 626.167969 758.753906 C 624.636719 765.621094 624.027344 773.34375 630.148438 788.632812 C 632.164062 793.664062 634.4375 797.839844 636.339844 801.84375 C 641.019531 811.773438 643.515625 820.632812 635.003906 837.667969 C 624.417969 858.84375 619.71875 864.246094 625.011719 890.710938 C 629.273438 912.011719 629.101562 1139.679688 629.101562 1157.617188 L 629.101562 1158.25 L 628.75 1158.777344 C 628.398438 1159.300781 627.351562 1160.808594 626.542969 1161.75 C 625.054688 1163.414062 623.28125 1165.164062 621.203125 1167.085938 C 612.957031 1174.808594 600.839844 1184.714844 585.421875 1200.136719 C 578.835938 1206.742188 571.925781 1208.929688 552.175781 1208.929688 Z M 552.175781 1208.929688 " fill-opacity="1" fill-rule="evenodd"/><g clip-path="url(#e1be044cee)"><path fill="#977028" d="M 303.414062 259.75 C 303.414062 259.8125 303.414062 259.871094 303.414062 259.933594 C 303.414062 260.078125 303.414062 260.222656 303.414062 260.363281 C 303.414062 260.433594 303.414062 260.5 303.414062 260.570312 C 303.414062 260.753906 303.414062 260.945312 303.414062 261.128906 C 303.414062 261.183594 303.414062 261.246094 303.414062 261.300781 C 303.414062 261.464844 303.414062 261.628906 303.414062 261.792969 C 303.414062 261.882812 303.414062 261.976562 303.414062 262.066406 C 303.414062 262.191406 303.414062 262.3125 303.410156 262.4375 C 303.410156 262.539062 303.410156 262.632812 303.402344 262.738281 C 303.402344 262.867188 303.394531 262.996094 303.394531 263.125 C 303.394531 263.3125 303.386719 263.496094 303.378906 263.679688 C 303.378906 263.78125 303.375 263.878906 303.375 263.980469 C 303.375 264.109375 303.367188 264.246094 303.359375 264.382812 C 303.359375 264.472656 303.351562 264.554688 303.351562 264.644531 C 303.347656 264.789062 303.347656 264.9375 303.339844 265.082031 C 303.339844 265.117188 303.339844 265.148438 303.332031 265.183594 C 303.320312 265.519531 303.304688 265.867188 303.292969 266.210938 C 303.292969 266.25 303.292969 266.292969 303.285156 266.332031 C 303.277344 266.511719 303.269531 266.6875 303.265625 266.867188 C 303.265625 266.90625 303.257812 266.949219 303.257812 266.996094 C 303.214844 267.800781 303.175781 268.628906 303.121094 269.476562 C 303.121094 269.476562 303.121094 269.484375 303.121094 269.484375 C 302.15625 284.289062 298.390625 305.085938 286.03125 321.476562 C 286.03125 321.476562 360.109375 324.046875 376.433594 324.394531 L 394.640625 270.742188 C 383.800781 270.988281 364.578125 267.863281 353.171875 254.34375 C 353.171875 254.34375 354.363281 271.617188 350.886719 284.507812 C 350.886719 284.507812 348.160156 292.835938 347.320312 295.652344 L 365.40625 306.511719 L 344.375 296.429688 C 344.375 296.429688 347.105469 290.421875 348.769531 283.957031 C 341.015625 281.78125 314.027344 272.820312 302.992188 250.644531 C 302.992188 250.644531 303.347656 253.871094 303.410156 259.15625 C 303.414062 259.359375 303.414062 259.550781 303.414062 259.75 Z M 523.914062 321.496094 C 511.554688 305.105469 507.785156 284.3125 506.824219 269.503906 C 506.824219 269.503906 506.824219 269.496094 506.824219 269.496094 C 506.769531 268.648438 506.722656 267.824219 506.6875 267.015625 C 506.6875 266.976562 506.683594 266.933594 506.683594 266.886719 C 506.675781 266.707031 506.667969 266.53125 506.660156 266.351562 C 506.660156 266.3125 506.660156 266.269531 506.65625 266.230469 C 506.640625 265.882812 506.628906 265.539062 506.613281 265.203125 C 506.613281 265.171875 506.613281 265.136719 506.605469 265.101562 C 506.601562 264.953125 506.601562 264.808594 506.59375 264.664062 C 506.59375 264.574219 506.585938 264.492188 506.585938 264.40625 C 506.578125 264.269531 506.578125 264.136719 506.574219 264 C 506.574219 263.898438 506.566406 263.804688 506.566406 263.699219 C 506.558594 263.515625 506.558594 263.332031 506.550781 263.148438 C 506.550781 263.015625 506.546875 262.886719 506.546875 262.757812 C 506.546875 262.65625 506.546875 262.550781 506.539062 262.457031 C 506.539062 262.332031 506.539062 262.210938 506.53125 262.085938 C 506.53125 262 506.53125 261.902344 506.53125 261.8125 C 506.53125 261.648438 506.53125 261.484375 506.523438 261.320312 C 506.523438 261.265625 506.523438 261.207031 506.523438 261.152344 C 506.523438 260.960938 506.523438 260.773438 506.523438 260.589844 C 506.523438 260.523438 506.523438 260.453125 506.523438 260.386719 C 506.523438 260.242188 506.523438 260.097656 506.523438 259.953125 C 506.523438 259.894531 506.523438 259.832031 506.523438 259.769531 C 506.523438 259.570312 506.523438 259.375 506.53125 259.183594 C 506.59375 253.90625 506.949219 250.671875 506.949219 250.671875 C 495.90625 272.847656 468.925781 281.808594 461.167969 283.984375 C 462.832031 290.449219 465.566406 296.457031 465.566406 296.457031 L 444.535156 306.539062 L 462.621094 295.679688 C 461.773438 292.855469 459.054688 284.535156 459.054688 284.535156 C 455.574219 271.652344 456.765625 254.371094 456.765625 254.371094 C 445.363281 267.898438 426.136719 271.015625 415.300781 270.769531 L 433.503906 324.421875 C 449.839844 324.066406 523.914062 321.496094 523.914062 321.496094 Z M 570.960938 306.78125 C 551.25 283.292969 562.695312 239.488281 562.695312 239.488281 C 548.109375 262.714844 522.804688 274.199219 510.105469 278.582031 C 514.625 311.75 529.179688 322.972656 529.179688 322.972656 L 530.589844 324.046875 L 430.835938 326.632812 C 430.835938 326.632812 417.191406 284.75 413.089844 270.652344 C 408.695312 255.539062 406.542969 238.960938 404.976562 224.8125 C 403.410156 238.960938 401.257812 255.539062 396.863281 270.652344 C 392.761719 284.75 379.117188 326.632812 379.117188 326.632812 L 279.363281 324.046875 L 280.773438 322.972656 C 280.773438 322.972656 295.328125 311.757812 299.847656 278.582031 C 287.148438 274.199219 261.84375 262.714844 247.257812 239.488281 C 247.257812 239.488281 258.703125 283.292969 238.992188 306.78125 L 283.601562 306.78125 L 245.484375 309.746094 L 260.796875 368.742188 L 303.039062 368.742188 L 297.910156 341.867188 L 305.132812 368.742188 L 305.175781 368.742188 L 305.175781 368.890625 L 306.90625 375.34375 L 308.40625 380.949219 L 501.539062 380.949219 L 503.039062 375.34375 L 504.773438 368.890625 L 504.773438 368.742188 L 504.8125 368.742188 L 512.035156 341.867188 L 506.90625 368.742188 L 549.148438 368.742188 L 564.464844 309.746094 L 526.34375 306.78125 Z M 280.773438 348.355469 L 266.890625 348.355469 L 266.890625 345.992188 L 280.773438 345.992188 Z M 280.773438 343.242188 L 266.890625 343.242188 L 266.890625 336.3125 C 266.890625 332.484375 270 329.378906 273.832031 329.378906 C 277.667969 329.378906 280.773438 332.484375 280.773438 336.3125 Z M 330.472656 361.234375 L 316.585938 361.234375 L 316.585938 358.871094 L 330.472656 358.871094 Z M 330.472656 355.730469 L 316.585938 355.730469 L 316.585938 348.800781 C 316.585938 344.972656 319.695312 341.867188 323.527344 341.867188 C 327.363281 341.867188 330.472656 344.972656 330.472656 348.800781 Z M 352.71875 361.234375 L 338.835938 361.234375 L 338.835938 358.871094 L 352.71875 358.871094 Z M 352.71875 355.730469 L 338.835938 355.730469 L 338.835938 348.800781 C 338.835938 344.972656 341.945312 341.867188 345.777344 341.867188 C 349.613281 341.867188 352.71875 344.972656 352.71875 348.800781 Z M 374.976562 361.234375 L 361.09375 361.234375 L 361.09375 358.871094 L 374.976562 358.871094 Z M 374.976562 355.730469 L 361.09375 355.730469 L 361.09375 348.800781 C 361.09375 344.972656 364.203125 341.867188 368.035156 341.867188 C 371.867188 341.867188 374.976562 344.972656 374.976562 348.800781 Z M 417.148438 373.265625 L 392.8125 373.265625 L 392.8125 370.902344 L 417.148438 370.902344 Z M 417.148438 367.898438 L 392.8125 367.898438 L 392.8125 339.734375 C 392.8125 333.023438 398.261719 327.582031 404.984375 327.582031 C 411.707031 327.582031 417.15625 333.023438 417.15625 339.734375 L 417.15625 367.898438 Z M 448.859375 361.234375 L 434.976562 361.234375 L 434.976562 358.871094 L 448.859375 358.871094 Z M 448.859375 355.730469 L 434.976562 355.730469 L 434.976562 348.800781 C 434.976562 344.972656 438.085938 341.867188 441.917969 341.867188 C 445.753906 341.867188 448.859375 344.972656 448.859375 348.800781 Z M 471.109375 361.234375 L 457.226562 361.234375 L 457.226562 358.871094 L 471.109375 358.871094 Z M 471.109375 355.730469 L 457.226562 355.730469 L 457.226562 348.800781 C 457.226562 344.972656 460.335938 341.867188 464.167969 341.867188 C 468 341.867188 471.109375 344.972656 471.109375 348.800781 Z M 493.367188 361.234375 L 479.484375 361.234375 L 479.484375 358.871094 L 493.367188 358.871094 Z M 493.367188 355.730469 L 479.484375 355.730469 L 479.484375 348.800781 C 479.484375 344.972656 482.589844 341.867188 486.425781 341.867188 C 490.257812 341.867188 493.367188 344.972656 493.367188 348.800781 Z M 543.0625 348.355469 L 529.179688 348.355469 L 529.179688 345.992188 L 543.0625 345.992188 Z M 536.121094 329.386719 C 539.953125 329.386719 543.0625 332.488281 543.0625 336.316406 L 543.0625 343.25 L 529.179688 343.25 L 529.179688 336.316406 C 529.179688 332.488281 532.285156 329.386719 536.121094 329.386719 Z M 261.414062 371.105469 L 262.515625 375.34375 L 262.515625 388.769531 L 265.289062 388.769531 L 265.289062 380.765625 C 265.289062 377.769531 267.71875 375.351562 270.710938 375.351562 L 304.304688 375.351562 L 303.496094 371.113281 L 261.414062 371.113281 Z M 310.207031 387.636719 L 310.207031 401.0625 L 312.980469 401.0625 L 312.980469 393.054688 C 312.980469 390.070312 315.394531 387.648438 318.386719 387.640625 L 351.488281 387.640625 C 354.480469 387.648438 356.898438 390.070312 356.898438 393.054688 L 356.898438 401.0625 L 359.667969 401.0625 L 359.667969 393.054688 C 359.667969 390.070312 362.085938 387.648438 365.078125 387.640625 L 398.164062 387.640625 C 401.164062 387.640625 403.585938 390.070312 403.585938 393.054688 L 403.585938 401.0625 L 406.359375 401.0625 L 406.359375 393.054688 C 406.359375 390.0625 408.789062 387.640625 411.78125 387.640625 L 444.867188 387.640625 C 447.859375 387.648438 450.277344 390.070312 450.277344 393.054688 L 450.277344 401.0625 L 453.050781 401.0625 L 453.050781 393.054688 C 453.050781 390.070312 455.464844 387.648438 458.457031 387.640625 L 491.558594 387.640625 C 494.542969 387.648438 496.96875 390.070312 496.96875 393.054688 L 496.96875 401.0625 L 499.738281 401.0625 L 499.738281 387.636719 L 500.898438 383.316406 L 309.050781 383.316406 Z M 505.648438 375.34375 L 539.234375 375.34375 C 542.234375 375.34375 544.65625 377.769531 544.65625 380.757812 L 544.65625 388.761719 L 547.429688 388.761719 L 547.429688 375.335938 L 548.53125 371.097656 L 506.457031 371.097656 Z M 505.648438 375.34375 " fill-opacity="1" fill-rule="nonzero"/></g></svg>