<svg width="443" height="235" viewBox="0 0 443 235" fill="none" xmlns="http://www.w3.org/2000/svg">
<mask id="mask0_1_13" style="mask-type:luminance" maskUnits="userSpaceOnUse" x="0" y="0" width="443" height="235">
<path d="M0 0H442.865V235H0V0Z" fill="white"/>
</mask>
<g mask="url(#mask0_1_13)">
<path d="M86.0833 46.5833C86.0833 46.6667 86.0833 46.7448 86.0833 46.8281C86.0833 47.0208 86.0833 47.2135 86.0833 47.401C86.0833 47.4948 86.0833 47.5833 86.0833 47.6771C86.0833 47.9219 86.0833 48.1771 86.0833 48.4219C86.0833 48.4948 86.0833 48.5781 86.0833 48.651C86.0833 48.8698 86.0833 49.0885 86.0833 49.3073C86.0833 49.4271 86.0833 49.5521 86.0833 49.6719C86.0833 49.8385 86.0833 50 86.0781 50.1667C86.0781 50.3021 86.0781 50.4271 86.0677 50.5677C86.0677 50.7396 86.0573 50.9115 86.0573 51.0833C86.0573 51.3333 86.0469 51.5781 86.0365 51.8229C86.0365 51.9583 86.0313 52.0885 86.0313 52.224C86.0313 52.3958 86.0208 52.5781 86.0104 52.7604C86.0104 52.8802 86 52.9896 86 53.1094C85.9948 53.3021 85.9948 53.5 85.9844 53.6927C85.9844 53.7396 85.9844 53.7813 85.974 53.8281C85.9583 54.276 85.9375 54.7396 85.9219 55.1979C85.9219 55.25 85.9219 55.3073 85.9115 55.3594C85.901 55.599 85.8906 55.8333 85.8854 56.0729C85.8854 56.125 85.875 56.1823 85.875 56.2448C85.8177 57.3177 85.7656 58.4219 85.6927 59.5521V59.5625C84.4063 79.3021 79.3854 107.031 62.9063 128.885C62.9063 128.885 161.677 132.313 183.443 132.776L207.719 61.2396C193.266 61.5677 167.635 57.401 152.427 39.375C152.427 39.375 154.016 62.4063 149.38 79.5938C149.38 79.5938 145.745 90.6979 144.625 94.4531L168.74 108.932L140.698 95.4896C140.698 95.4896 144.339 87.4792 146.557 78.8594C136.219 75.9583 100.234 64.0104 85.5208 34.4427C85.5208 34.4427 85.9948 38.7448 86.0781 45.7917C86.0833 46.0625 86.0833 46.3177 86.0833 46.5833ZM380.083 128.911C363.604 107.057 358.578 79.3333 357.297 59.5885V59.5781C357.224 58.4479 357.161 57.349 357.115 56.2708C357.115 56.2188 357.109 56.1615 357.109 56.099C357.099 55.8594 357.089 55.625 357.078 55.3854C357.078 55.3333 357.078 55.276 357.073 55.224C357.052 54.7604 357.036 54.3021 357.016 53.8542C357.016 53.8125 357.016 53.7656 357.005 53.7188C357 53.5208 357 53.3281 356.99 53.1354C356.99 53.0156 356.979 52.9063 356.979 52.7917C356.969 52.6094 356.969 52.4323 356.964 52.25C356.964 52.1146 356.953 51.9896 356.953 51.849C356.943 51.6042 356.943 51.3594 356.932 51.1146C356.932 50.9375 356.927 50.7656 356.927 50.5938C356.927 50.4583 356.927 50.3177 356.917 50.1927C356.917 50.026 356.917 49.8646 356.906 49.6979C356.906 49.5833 356.906 49.4531 356.906 49.3333C356.906 49.1146 356.906 48.8958 356.896 48.6771C356.896 48.6042 356.896 48.526 356.896 48.4531C356.896 48.1979 356.896 47.9479 356.896 47.7031C356.896 47.6146 356.896 47.5208 356.896 47.4323C356.896 47.2396 356.896 47.0469 356.896 46.8542C356.896 46.776 356.896 46.6927 356.896 46.6094C356.896 46.3438 356.896 46.0833 356.906 45.8281C356.99 38.7917 357.464 34.4792 357.464 34.4792C342.74 64.0469 306.766 75.9948 296.422 78.8958C298.641 87.5156 302.286 95.526 302.286 95.526L274.245 108.969L298.359 94.4896C297.229 90.724 293.604 79.6302 293.604 79.6302C288.964 62.4531 290.552 39.4115 290.552 39.4115C275.349 57.4479 249.714 61.6042 235.266 61.276L259.536 132.813C281.318 132.339 380.083 128.911 380.083 128.911ZM442.813 109.292C416.531 77.974 431.792 19.5677 431.792 19.5677C412.344 50.5365 378.604 65.849 361.672 71.6927C367.698 115.917 387.104 130.88 387.104 130.88L388.984 132.313L255.979 135.76C255.979 135.76 237.786 79.9167 232.318 61.1198C226.458 40.9687 223.589 18.8646 221.5 0C219.411 18.8646 216.542 40.9687 210.682 61.1198C205.214 79.9167 187.021 135.76 187.021 135.76L54.0156 132.313L55.8958 130.88C55.8958 130.88 75.3021 115.927 81.3281 71.6927C64.3958 65.849 30.6563 50.5365 11.2083 19.5677C11.2083 19.5677 26.4688 77.974 0.1875 109.292H59.6667L8.84375 113.245L29.2604 191.906H85.5833L78.7448 156.073L88.375 191.906H88.4323V192.104L90.7396 200.708L92.7396 208.182H350.25L352.25 200.708L354.563 192.104V191.906H354.615L364.245 156.073L357.406 191.906H413.729L434.151 113.245L383.323 109.292H442.813ZM55.8958 164.724H37.3854V161.573H55.8958V164.724ZM55.8958 157.906H37.3854V148.667C37.3854 143.563 41.5313 139.422 46.6406 139.422C51.7552 139.422 55.8958 143.563 55.8958 148.667V157.906ZM122.161 181.896H103.646V178.745H122.161V181.896ZM122.161 174.557H103.646V165.318C103.646 160.214 107.792 156.073 112.901 156.073C118.016 156.073 122.161 160.214 122.161 165.318V174.557ZM151.823 181.896H133.313V178.745H151.823V181.896ZM151.823 174.557H133.313V165.318C133.313 160.214 137.458 156.073 142.568 156.073C147.682 156.073 151.823 160.214 151.823 165.318V174.557ZM181.5 181.896H162.99V178.745H181.5V181.896ZM181.5 174.557H162.99V165.318C162.99 160.214 167.135 156.073 172.245 156.073C177.354 156.073 181.5 160.214 181.5 165.318V174.557ZM237.729 197.938H205.281V194.786H237.729V197.938ZM237.729 190.781H205.281V153.229C205.281 144.281 212.547 137.026 221.51 137.026C230.474 137.026 237.74 144.281 237.74 153.229V190.781H237.729ZM280.01 181.896H261.5V178.745H280.01V181.896ZM280.01 174.557H261.5V165.318C261.5 160.214 265.646 156.073 270.755 156.073C275.87 156.073 280.01 160.214 280.01 165.318V174.557ZM309.677 181.896H291.167V178.745H309.677V181.896ZM309.677 174.557H291.167V165.318C291.167 160.214 295.313 156.073 300.422 156.073C305.531 156.073 309.677 160.214 309.677 165.318V174.557ZM339.354 181.896H320.844V178.745H339.354V181.896ZM339.354 174.557H320.844V165.318C320.844 160.214 324.984 156.073 330.099 156.073C335.208 156.073 339.354 160.214 339.354 165.318V174.557ZM405.615 164.724H387.104V161.573H405.615V164.724ZM396.359 139.432C401.469 139.432 405.615 143.568 405.615 148.672V157.917H387.104V148.672C387.104 143.568 391.245 139.432 396.359 139.432ZM30.0833 195.057L31.5521 200.708V218.609H35.25V207.938C35.25 203.943 38.4896 200.719 42.4792 200.719H87.2708L86.1927 195.068H30.0833V195.057ZM95.1406 217.099V235H98.8385V224.323C98.8385 220.344 102.057 217.115 106.047 217.104H150.182C154.172 217.115 157.396 220.344 157.396 224.323V235H161.089V224.323C161.089 220.344 164.313 217.115 168.302 217.104H212.417C216.417 217.104 219.646 220.344 219.646 224.323V235H223.344V224.323C223.344 220.333 226.583 217.104 230.573 217.104H274.688C278.677 217.115 281.901 220.344 281.901 224.323V235H285.599V224.323C285.599 220.344 288.818 217.115 292.807 217.104H336.943C340.922 217.115 344.156 220.344 344.156 224.323V235H347.849V217.099L349.396 211.339H93.599L95.1406 217.099ZM355.729 200.708H400.51C404.51 200.708 407.74 203.943 407.74 207.927V218.599H411.438V200.698L412.906 195.047H356.807L355.729 200.708Z" fill="#977028"/>
</g>
</svg>
